<?xml version="1.0" encoding="UTF-8"?>
<svg id="Layer_1" data-name="Layer 1" xmlns="http://www.w3.org/2000/svg" version="1.1" viewBox="0 0 1920 1080">
  <defs>
    <style>
      .cls-1 {
        fill: #fff;
        stroke-width: 0px;
      }
    </style>
  </defs>
  <path class="cls-1" d="M958.1,867.8c-168.4,0-336.7,0-505.1,0-25.8,0-46.7-16.6-52.1-41.5-.8-3.6-1.1-7.4-1.1-11.2,0-183.1,0-366.2,0-549.4,0-29.7,23-52.6,52.9-52.7,63.9,0,127.8,0,191.6,0,272.9,0,545.7,0,818.6,0,23.3,0,40.4,10.3,49.9,31.6,2.7,6,3.8,13,4.3,19.6.7,10.2.2,20.5.2,30.7,0,173,0,346,0,519,0,25-14.9,45.5-38.1,51.7-5.2,1.4-10.8,2-16.3,2-168.3.1-336.5,0-504.8,0ZM958.5,846.8h495.3c24.7,0,42.4-17.6,42.4-42.2,0-176.6,0-353.2,0-529.8,0-24.4-17.7-42.2-42-42.2-330.5,0-661,0-991.4,0-24.1,0-42,17.7-42,41.8,0,176.9,0,353.7,0,530.6,0,3.5.3,7,1.1,10.4,4.5,19,20.8,31.4,40.9,31.4,165.2,0,330.5,0,495.7,0Z"/>
  <path class="cls-1" d="M1342.5,658.5h-22.7c-5.9,0-11.8-.2-17.6,0-2.8,0-4.1-.6-5.1-3.4-6.9-19.2-13.9-38.3-21-57.4-5.6-15.2-11.4-30.4-17-45.6-7.3-19.9-14.6-39.9-21.9-59.9-2.8-7.7-5.6-15.4-8.5-23-.8-2.1-1.9-4.1-3.1-5.9-3.7-5.5-9.1-7.5-14.8-5.8-5.1,1.5-8.3,6.1-8.5,12.6,0,.9,0,1.8,0,2.6,0,46.9,0,93.8,0,140.6,0,10.4-2.3,20.2-8.2,29.1-8,12-19.8,17.6-33.5,19.8-10.4,1.6-20.6.9-30.7-2.2-13.2-4.1-23.4-12.6-28.6-25-11.2-26.7-21.3-53.8-31.7-80.7-8.2-21.3-16.3-42.7-24.4-64.1-2.9-7.6-5.7-15.3-8.7-22.9-3.1-8-8.8-11.4-16.1-9.8-5.4,1.2-8.7,5.5-9.3,12.5-.2,1.9,0,3.8,0,5.6v182.8h-41.2v-4.2c0-61.5,0-123,0-184.5,0-10.8,1.6-21.4,7.3-30.9,6.7-11.1,16.9-17.3,29.2-20,12.2-2.6,24.5-2.7,36.5,1.3,12.4,4.1,22.2,11.8,27.3,23.7,9.1,21.3,17.3,43,25.7,64.7,7.1,18.3,14.1,36.7,21,55.1,5.7,15.1,11.1,30.2,16.8,45.3,1.1,2.9,2.6,5.7,4.3,8.2,3.6,5,9.3,6.7,15.3,4.7,4.6-1.5,7.8-6.5,7.8-12.3,0-46.8,0-93.5,0-140.2,0-12.1,2.1-23.8,9.6-33.9,7.4-9.9,17.4-14.8,29.2-16.9,8.8-1.6,17.5-1.4,26.4,0,15.6,2.5,27,10.9,34.5,24.1,5.1,9.1,8.8,19,12.5,28.7,10.7,28.3,21.2,56.7,31.7,85,8.2,22.1,16.4,44.2,24.6,66.2,4,10.8,7.9,21.6,11.9,32.5.4,1,.6,2.1,1.1,3.5Z"/>
  <path class="cls-1" d="M836.2,658.5c-14.7,0-29.2,0-43.7,0-.9,0-2.2-1.3-2.6-2.3-4.1-10.4-8-20.8-11.9-31.2-4.6-12.2-9-24.4-13.6-36.6-9-23.8-18.1-47.7-27.1-71.5-6.1-16.2-12.2-32.5-18.3-48.7-2.3-6.1-5.4-8.3-11.7-8.4-6.5,0-9.8,2.1-12.2,8.3-10.3,26-20.5,52-30.7,78-6.5,16.6-13,33.2-19.6,49.7-8,20.2-15.9,40.3-24,60.5-.4,1-1.8,2.2-2.7,2.2-14.3.1-28.7,0-43.6,0,2.2-5.7,4.2-11,6.3-16.2,6.4-16.3,12.8-32.7,19.3-49,7.9-20,16-40,23.9-60,6.6-16.7,13-33.5,19.6-50.1,4.9-12.4,9.8-24.9,14.9-37.2,6-14.5,16.2-23.8,32.1-27,15.7-3.2,31-2.7,45.6,4.2,11.1,5.3,17,15.2,21.2,26.2,13.5,35.4,26.9,70.8,40.3,106.3,8.9,23.4,17.6,46.8,26.5,70.3,3.8,10.1,7.7,20.1,11.5,30.2.3.7.4,1.4.6,2.4Z"/>
  <path class="cls-1" d="M1355.8,356.5v17.5h-781.2v-17.5h781.2Z"/>
  <path class="cls-1" d="M571.7,724.2v-17.5h781v17.5h-781Z"/>
  <path class="cls-1" d="M871.8,421.7h40.8v236.5h-40.8v-236.5Z"/>
</svg>