<?xml version="1.0" encoding="UTF-8"?>
<svg id="Layer_1" data-name="Layer 1" xmlns="http://www.w3.org/2000/svg" version="1.1" viewBox="0 0 1920 1080">
  <defs>
    <style>
      .cls-1 {
        fill: #fff;
        stroke-width: 0px;
      }
    </style>
  </defs>
  <path class="cls-1" d="M1003.6,930.6c-2.3-11.3-2.7-22.4.2-33.3,4-14.9,8.4-29.7,12.7-44.6.5-1.6,1.3-3,2.2-4.5,6.2-10.8,12.2-21.7,18.7-32.4,4.1-6.7,8.3-13.5,13.4-19.4,15.1-17.2,29.3-35.2,42.2-54,19.8-28.6,42.5-54.6,66.8-79.4,25-25.6,50.9-50.5,72.8-78.9,9.1-11.8,17.5-24.3,26.2-36.5,11.6-16.3,25.9-29.3,44.2-37.9,18-8.5,35.6-18,53.6-26.6,20.4-9.8,38.8-22.7,56.6-36.4,28.7-22.1,57.4-44.5,84.7-68.3,25-21.7,48.1-45.5,72.2-68.2,2.6-2.4,4.6-6.6,9.3-4.9,5,1.8,4.6,6.4,3.8,10.1-2.1,10.4-4,20.9-7.6,30.8-5.7,15.7-12.7,31-19.2,46.5-9.3,22.4-18.3,44.9-28.1,67-23.5,53.3-50,105-84,152.6-5.2,7.3-10.7,14.3-15.5,21.8-6.4,9.9-15,16.9-25.2,22.7-21.7,12.4-42.5,26.2-64.3,38.3-26.1,14.5-52.9,28-79.4,41.8-19.6,10.3-38.7,21.4-56.4,34.8-8.9,6.7-18,13-27.5,18.8-6,3.7-12.7,6.3-19.3,9-27.6,11.1-53.5,24.2-73.2,47.9-10.2,12.4-23.1,22.5-34.7,33.8-3.9,3.8-7.6,7.9-10.9,12.3-10.1,13.2-19.1,27.3-34.3,36.9Z"/>
  <path class="cls-1" d="M341.7,304.5c17.1,9.1,29.8,22.3,41.3,36.6,18.9,23.5,42.3,41.9,65.8,60.2,14.3,11.2,28.2,22.9,42.7,33.8,12.2,9.1,25.2,17.2,37.8,25.9,6.4,4.4,12.2,9.6,18.8,13.7,8,4.9,16.4,9.2,24.8,13.4,17.4,8.7,35.4,16.3,52.1,26,16.4,9.5,29.9,22.9,40.1,39,19.5,30.6,43.4,57.6,68.6,83.6,24.1,24.9,47.9,50,70.8,76,11.9,13.4,21.7,28.6,32.1,43.2,8.3,11.6,16.7,22.9,26.1,33.7,9,10.3,16.3,22.1,23.8,33.6,5.4,8.4,10,17.3,14.6,26.1,1.8,3.3,2.9,7.1,3.8,10.8,4.4,17.5,8.9,35.1,12.8,52.7,1.2,5.7.9,11.9-2.6,17.3-.9-1.1-1.6-2.4-2.7-3-11.4-6-17.8-16.6-25.1-26.6-5.5-7.6-11.4-15.1-18.2-21.6-20.3-19.5-41.1-38.4-61.8-57.5-1.9-1.8-4.2-3.2-6.6-4.3-11.3-5-22.9-9.6-34.2-14.7-13.7-6.2-26.4-14.1-38.9-22.8-27-18.8-54.9-36.1-83.9-51.9-46.4-25.3-92.4-51.4-138.6-77.3-2.9-1.6-5.6-4.2-7.7-6.8-41.4-52.8-73.5-110.9-99.9-172.4-16.4-38.3-33.7-76.2-50.2-114.4-4.3-9.9-7.4-20.3-10.1-30.7-2-7.5-1.4-15.2,4.2-21.7Z"/>
  <path class="cls-1" d="M1496.4,152.4c-3.3,2.4-6.3,5.2-9.8,7.3-21,12.7-36.2,30.8-48.3,51.6-8.7,15.1-16.3,30.8-24.3,46.3-6.2,11.9-12.5,23.7-18.3,35.8-3.9,8-6.7,16.5-10.7,24.4-3.4,6.8-7.7,13.2-11.7,19.7-8.9,14.8-17.7,29.6-26.9,44.2-9.3,14.8-18.8,29.5-28.9,43.7-8.4,11.8-17.6,23.1-27,34.1-22.4,26.1-51.9,39.9-84.6,48.7-27,7.3-53.6,15.6-78.6,28.7-22.8,12-43.7,26.6-63,43.5-2,1.8-4.8,4.2-6.9,3.9-8.7-1.3-9.1.6-7.2-8.8,6-30.9,15.7-60.7,29.6-89,8.2-16.6,16.9-33.1,27-48.6,15.4-23.7,32.6-46.1,52.9-65.9,12.7-12.4,25.5-24.8,39-36.4,8-6.9,17.4-12.3,26.1-18.5,5.5-3.9,10.8-8,16.4-11.7,7.3-4.8,14.9-9.2,22.2-13.9,7.2-4.6,14.4-9,21.3-13.9,12.5-8.9,24.7-18.1,37.1-27.1,8.1-5.9,16.2-11.7,24.4-17.4,14.3-9.8,28.5-19.6,43-28.9,5.8-3.7,13-5.4,18.2-9.7,13.2-10.9,27.9-19,42.9-26.7,11.6-6,23.3-11.7,35.3-16.9,3-1.3,7-.2,10.5-.2.1.5.3,1.1.4,1.6Z"/>
  <path class="cls-1" d="M427.4,149.4c4.3,1.3,8.8,2.2,12.8,4.1,14,6.7,27.9,13.6,41.6,20.9,7.6,4.1,15.5,8.2,22,13.8,8.7,7.4,18.8,12.3,28.5,18,8,4.6,15.3,10.5,23,15.8,20.4,14.1,40.8,28.1,61.2,42.3,6.1,4.3,11.8,9.1,18,13.4,7.7,5.3,15.7,10.1,23.5,15.2,10.3,6.7,20.7,13.1,30.6,20.4,13.5,10,26.7,20.4,39.6,31.1,63.7,53.1,105.8,120.6,131.5,198.8,3.8,11.5,6.9,23.2,10,34.9.5,2.1,0,6.4-.6,6.5-3.1.5-6.5.3-9.6-.3-1.4-.3-2.6-2-3.7-3.2-11.6-12.9-25.6-22.7-41-30.5-12.1-6.1-24-12.4-36.1-18.3-14.5-7-30.2-9.9-45.8-13.2-9.2-1.9-18.1-5.7-27.1-8.7-5.9-2-11.9-3.7-17.6-6.2-4.3-1.9-8.2-4.8-12.3-7.1-5.5-3.2-11.3-6-16.6-9.4-3.5-2.3-6.5-5.4-9.5-8.3-9-8.8-18.5-17.3-26.8-26.7-9.8-11.1-19.5-22.4-27.6-34.8-10.7-16.3-20.1-33.4-29.4-50.5-16.9-31.5-32.7-63.6-50.1-94.8-14.2-25.4-29.6-50.1-45.4-74.6-5.4-8.3-13.4-15-20.6-22.2-5.9-5.9-12.4-11.3-18.4-17.2-2.1-2-3.4-4.8-5-7.3.4-.5.9-1.1,1.3-1.6Z"/>
  <path class="cls-1" d="M878.8,491.8c-12.7-62.5-33.8-122.6-51.8-183.5.5-.2,1-.5,1.4-.7.9,1.2,1.9,2.3,2.6,3.5,20.2,39.9,39.5,80.2,49,124.2,3.6,16.8,5.2,33.8,2.6,51-.3,1.8-1.1,3.6-1.7,5.4-.7,0-1.4,0-2.1,0Z"/>
  <path class="cls-1" d="M1090.5,309.3c-17,60.3-34.1,120.6-51.2,181.2-7.4-14.4-4-28.8-2.2-43,4.1-32.5,16.8-62.4,29.9-92,6.9-15.7,14.7-31.1,22.1-46.7.5.2,1,.4,1.4.5Z"/>
</svg>