<?xml version="1.0" encoding="UTF-8"?>
<svg id="Layer_1" data-name="Layer 1" xmlns="http://www.w3.org/2000/svg" version="1.1" viewBox="0 0 1920 1080">
  <defs>
    <style>
      .cls-1 {
        fill: #fff;
        stroke-width: 0px;
      }
    </style>
  </defs>
  <path class="cls-1" d="M985.2,686.3v-30.1c1.9,0,3.6,0,5.4,0,28,0,56,0,83.9,0,4.3,0,8.6-.3,12.9-.9,12.1-1.7,18.5-7.8,20.3-19.8,1-6.4,1.1-12.9,1.6-20.1-2.4,0-4.2,0-5.9,0-21.1,0-42.3.6-63.4-.2-10.3-.4-20.9-2.3-30.8-5.4-23.1-7.1-34.4-24.6-39-47.4-4.2-20.8-2.2-40.9,5-60.8,7.6-21.2,22.2-33.9,44.5-37.2,24.8-3.7,49.9-3.8,74.7-1.2,23.5,2.5,38.1,16.9,43.3,40.7,2,9,3,18.4,3.1,27.7.4,31.1.4,62.3,0,93.4-.1,9.7-1.6,19.6-3.7,29.1-3.5,15.9-13.7,26-29.9,29.1-10.1,1.9-20.4,3.9-30.6,4-28.8.4-57.6-.2-86.4-.3-1.5,0-3-.2-4.9-.3ZM1108.9,586.3c0-21.7.8-43.3-.3-64.8-.9-17.4-6.8-23.9-21.9-27.3-20.4-4.7-41-3.6-61.4.6-10.9,2.3-18,9.2-21.5,20-4.1,12.8-4.4,25.9-2.5,39,3.2,22.1,12.7,31.7,35,32.9,23.2,1.2,46.6.4,69.9.4.8,0,1.6-.4,2.6-.7Z"/>
  <path class="cls-1" d="M159.2,452.7v-35c1.3-.1,2.5-.3,3.6-.3,36.3,0,72.6-.1,108.9,0,15.1,0,29.5,3.3,41.7,12.8,16.6,12.8,22.3,30.6,21.8,50.7-.6,22.2-8.5,40.9-28.2,53.1-4.5,2.8-9.6,4.4-15,6.9,15.6,27,31.1,53.8,47.2,81.5-9.8,0-18.8-.5-27.6.1-7.8.6-12.7-1.1-16.8-8.7-11.3-21.2-24-41.7-35.6-62.8-3.1-5.6-5.9-8.4-12.8-8.2-14.6.6-29.3.2-44,.2-6.8,0-7.9,1-7.9,7.7,0,21.6,0,43.3,0,64.9,0,2,0,4,0,6.4h-35.9c0-5.8,0-11.5,0-17.3,0-18.3-.3-36.6.1-54.9.2-7.4,1.4-14.9,3.3-22.1,3.3-13.1,9.6-17.9,23.3-18.2,15-.2,30,.4,44.9.3,14.1,0,28.3,0,42.4-.8,27.6-1.8,32.3-28,22.3-45.4-3.8-6.5-9.9-9.2-16.9-10-5.1-.6-10.3-.8-15.4-.8-33,0-65.9.1-98.9.2-1.3,0-2.6-.1-4.5-.2Z"/>
  <path class="cls-1" d="M1524.5,461.7v-68.8h31.8c0,1.8.2,3.4.2,5.1,0,51.9.1,103.9-.1,155.8,0,9.1-1,18.3-3,27.2-5.3,24.1-18.5,37.4-43.1,39.6-23.1,2.1-46.6,1.6-69.8.9-19.8-.6-34-12-43.4-28.7-17.4-30.9-18.1-63.2-4.8-95.6,8.6-20.9,25.9-30.9,47.7-33.7,8.2-1.1,16.6-1.6,24.9-1.7,18-.2,36,0,54,0,1.8,0,3.5,0,5.7,0ZM1524.6,492.3c-25.3,0-49.9-.6-74.4.2-17.3.6-27.3,9.9-31.6,26.8-3.7,14.8-3.6,29.7-.5,44.6,2.9,14.1,11,24.2,25.7,26.5,19,2.9,38.2,3.5,57.2,0,12.1-2.3,19.7-9.6,22-22.1,4.6-25,1.7-50.1,1.7-75.9Z"/>
  <path class="cls-1" d="M1314.3,527.7c-.6-7.4-.6-14.5-1.9-21.2-1.8-9.3-8.5-13.7-20.3-14-12.5-.3-25-.1-37.5-.1-20.3,0-40.6,0-61.3,0v-30.7c1.6,0,3.4,0,5.1,0,29.3,0,58.6-.4,87.9.2,9.8.2,19.9,2.1,29.3,4.9,16.9,5.1,25.2,18.1,28.1,34.9.9,5.1,1.2,10.3,1.2,15.4,0,23.8.1,47.6-.2,71.4,0,6.3-1,12.6-2.1,18.8-1.5,8.4-8.7,14.2-19.6,14.7-17.6.8-35.3.9-52.9.8-15.1,0-30.3-.1-45.4-1.5-30.2-2.8-46.8-26.4-40.5-56.3,5.4-25.6,16.6-35.5,44.8-36.5,26.1-.9,52.3-.4,78.4-.5,1.9,0,3.9-.2,6.7-.3ZM1313.9,553.8c-1.1-.3-1.6-.5-2.1-.5-26.3,0-52.6-.2-78.9.2-14.1.2-21.4,11.5-17.5,25.5,2.3,8.2,9,12.9,20.7,13.1,22.9.3,45.9,0,68.8-.4,6.1,0,8.4-1.8,8.7-7.8.5-9.9.1-19.9.1-30Z"/>
  <path class="cls-1" d="M391.6,557.4c0,5.7-.5,10.9.1,15.9,1.4,11.8,9.3,18.1,23.2,18.7,6.6.3,13.3,0,20,0,25,0,50,0,74.9-.1,1.3,0,2.6.2,4.1.3v29.7c-.9.1-1.7.3-2.4.3-32,0-63.9.1-95.9-.3-7.6,0-15.2-1.6-22.7-3.3-18.3-4.1-29-17-31-34.4-3.3-28.4-3.5-57.2,1.1-85.6,3.6-22.1,18-34.9,41.5-36,25.9-1.2,51.9-1,77.8.7,24.1,1.6,38,17.3,39.7,41.6.4,5.8.1,11.7-.7,17.4-2.4,16.9-11.8,28.1-28.7,31.6-10.2,2.1-20.7,3.4-31.1,3.6-21.3.4-42.6-.2-63.9-.4-1.8,0-3.6,0-5.9,0ZM390.9,532.6c2.8,0,4.4,0,6,0,22.6,0,45.3,0,67.9,0,4.6,0,9.5-.2,13.8-1.7,3.6-1.3,7.6-4,9.6-7.2,8.4-13.7.5-30.3-15.5-31.1-20.9-1-41.9-.5-62.8.1-9.7.3-15.9,6.4-17.5,16.2-1.2,7.5-1,15.2-1.4,23.7Z"/>
  <path class="cls-1" d="M1631,557.4c0,6-.6,11.3.1,16.5,1.5,11.5,9.7,17.7,23.7,18.2,8.6.3,17.3,0,26,0,22.6,0,45.3,0,67.9,0,1.4,0,2.9.2,4.6.3v30.6c-6.5,0-12.7,0-19,0-26.5-.2-52.9-.1-79.4-.7-7.6-.2-15.2-1.7-22.6-3.4-18.5-4.2-29-17.4-31.1-34.9-3.3-27.7-3-55.9,1.1-83.6,3.4-23.2,17.7-36.3,41.8-37.3,25.9-1.2,51.9-1,77.8.8,24.4,1.6,38.6,18.1,39.6,42.6.2,5.5,0,11-.8,16.4-2.4,16.7-11.6,27.9-28.3,31.4-10.3,2.2-21,3.5-31.6,3.7-21.3.4-42.6-.2-63.9-.4-1.8,0-3.6,0-5.8,0ZM1630.2,532.2c2.3.2,3.4.4,4.6.4,20.5,0,41,0,61.4,0,5.5,0,11,0,16.5-.5,5.9-.6,11.5-2.3,14.8-8,8.3-14.1.7-30.7-15.5-31.5-20.9-1-41.9-.5-62.8.2-9.6.3-16,6.6-17.5,16.3-1.2,7.5-.9,15.1-1.3,23.2Z"/>
  <path class="cls-1" d="M804.3,557.8c.5,6.6.4,13.2,1.8,19.4,2,9.3,10.4,14.4,22.8,14.9,6.1.2,12.3,0,18.5,0,25.3,0,50.6-.1,75.9-.1,1.3,0,2.6.2,4.2.3v29.7c-.9.2-1.7.4-2.4.4-32.1,0-64.3.1-96.4-.3-7.4,0-14.9-1.6-22.2-3.3-17.7-4.2-30.9-18.4-31.7-38.3-1.1-25.9-1.1-52,1.4-77.7,2.4-25.1,15.4-37.7,40.5-39.6,25.5-1.9,51.3-1.6,76.8,0,35.4,2.4,44,28.4,42.2,53.9-1.7,23.9-14.1,36.8-39.3,38.9-21.7,1.8-43.5,1.3-65.3,1.7-8.5.2-17,0-26.7,0ZM804.2,532.1c2,.3,2.8.5,3.6.5,24.8,0,49.6,0,74.4-.1,3.9,0,8-.9,11.7-2.1,6.7-2.3,11-9.4,10.9-16.9-.1-9.5-4.3-17.1-11.5-19.1-5.4-1.5-11.1-2.7-16.6-2.7-17.3,0-34.6.4-51.9,1-10.3.3-17.4,6.2-19.1,16.4-1.2,7.5-1,15.2-1.4,23.2Z"/>
  <path class="cls-1" d="M732.2,622.2h-32.2c0-2.1,0-4.1,0-6,0-25.5.2-50.9.1-76.4,0-4.8-.5-9.6-1-14.4-1.8-18.8-12.4-29.7-32.3-31.8-14-1.5-28.2-1.6-42.3-1.9-8-.2-16,.6-24,.6-4.1,0-5.8,1.9-5.9,5.7-.1,4.7-.3,9.3-.3,14,0,34.6.1,69.2.2,103.9,0,2,0,4,0,6.3h-31.4c0-1.6,0-3.4,0-5.1,0-40.6-.2-81.2,0-121.8,0-7.2,1.1-14.6,2.4-21.7,1.3-6.8,6-10.5,13-10.9,3.5-.2,7-.7,10.4-.7,22.6.2,45.3,0,67.9.9,10.7.4,21.6,2.2,31.9,5.2,24.8,7.1,38.3,24.6,42.2,49.8.7,4.7,1,9.6,1.1,14.4,0,28.5,0,56.9,0,85.4,0,1.5,0,2.9,0,4.8Z"/>
</svg>