<?xml version="1.0" encoding="UTF-8"?>
<svg id="Layer_1" data-name="Layer 1" xmlns="http://www.w3.org/2000/svg" version="1.1" viewBox="0 0 1920 1080">
  <defs>
    <style>
      .cls-1 {
        fill: #fff;
        stroke-width: 0px;
      }
    </style>
  </defs>
  <path class="cls-1" d="M553.4,643.2h-34.9c-.2-1.5-.4-2.8-.4-4,0-49.8-.1-99.6,0-149.3,0-7.1.6-14.3,1.6-21.4,1.8-13.5,9.3-22.9,22-27.9,12.8-5.1,26-5.6,39.2-2.3,15,3.8,23.6,14.5,29.8,28.1,18.9,41.8,38,83.5,57,125.3,2.1,4.7,4.4,9.3,6.8,13.9,2.5,4.8,6.6,7.4,12.1,7.6,7.4.2,11.7-3,12.5-10.4.7-6.8,1-13.6,1-20.4,0-45.9-.3-91.9-.4-137.8,0-1.1.2-2.2.3-3.7h35.3v5.5c0,49.3.2,98.6-.1,147.8,0,8.9-1,18-3.1,26.6-4,16-16.4,23.1-31.6,25.9-25.9,4.8-46.3-5.3-58-29.2-8.8-17.9-16.5-36.3-24.7-54.5-11-24.4-22-48.8-33.1-73.1-2.1-4.5-4.4-9-7.1-13.1-3.8-5.9-9.9-7.8-16.7-5.8-4.3,1.3-7.2,6.4-7.2,13,0,50.8,0,101.6,0,152.3,0,2.1,0,4.3,0,6.9Z"/>
  <path class="cls-1" d="M1442.3,538.2c0-23,0-45.9,0-68.9,0-3.8,0-7.7.1-11.5.4-13,4.4-16.8,17.4-16.9,24.9-.1,49.9-.2,74.8-.4,15.1,0,29.4,3.3,43.1,9.4,20.9,9.3,33.1,26.3,39.5,47.6,6.6,22.2,8,44.8,3.9,67.6-1.4,7.7-2.1,15.6-4.4,23-9.4,30.3-29.9,48.1-61.6,52.1-33.6,4.3-67.4,4.4-101.2,1.5-5.7-.5-8.5-3.2-9.2-8.4-.9-5.7-1.9-11.5-2-17.3-.2-26,0-51.9,0-77.9,0,0-.2,0-.3,0ZM1478.1,541.8s0,0,0,0c0,19.6,0,39.3,0,58.9,0,7.1.3,7.7,7.1,7.7,19.1,0,38.3.2,57.4-1,22.8-1.5,37-14.4,42.1-36.6,3.8-16.7,4-33.7,2.1-50.6-2.8-24.6-15.7-38.5-40-43-20.9-3.9-42.2-2.3-63.3-1.9-3.7,0-5.4,2.3-5.4,6.2.1,20.1,0,40.2,0,60.4Z"/>
  <path class="cls-1" d="M469.6,525.2v31.4c-1.9,0-3.7,0-5.4,0-30.5,0-61,0-91.5,0-4.2,0-8.3.3-12.4.8-14.4,1.7-23.3,10.7-23.4,23.3,0,14.9,8.7,25,23.6,26.7,6.1.7,12.3.9,18.5.9,28.8,0,57.6,0,86.5,0h5.7v34.8c-1.5,0-3,.2-4.6.2-31.2,0-62.3.5-93.5-.2-12.2-.3-24.6-2.3-36.5-5.2-30.5-7.5-38-34.8-35.6-54.8,2.3-18.8,11.1-33.6,29-42.9-3.1-1.3-5.6-2.2-7.9-3.5-11.4-6.5-17.2-16.8-19.4-29.3-1.8-10.7-1-21.2,2-31.6,5.4-18.7,19.2-28.2,37.2-32.1,9.2-2,18.7-3.3,28.2-3.4,32.2-.4,64.3-.1,96.5,0,1.5,0,2.9.2,4.6.3v34c-2.1.1-4,.3-6,.3-29.2,0-58.3-.1-87.5,0-6.5,0-13,.3-19.4,1.5-13.5,2.4-20.5,12-20,26.1.5,12.3,8.2,20.3,21.6,22,5.4.7,11,.8,16.4.7,29.7,0,59.3-.3,89-.4,1.3,0,2.6.2,4.2.3Z"/>
  <path class="cls-1" d="M945.8,643.8c-16.3,0-32.1.2-47.9,0-21.1-.3-42.3-.5-63.4-1.4-7.7-.3-15.5-2.1-23-4.1-21-5.5-32.8-19.7-35.6-40.8-2.3-17.9,2.5-34.1,15.3-47.2,3.7-3.9,8.5-6.7,12.8-10-23.1-11-31.8-30.3-26.1-57.8,4.8-23,17.8-35.1,43.5-39.6,8.5-1.5,17.2-2.2,25.8-2.4,24.1-.4,48.3-.4,72.4-.5,8.6,0,17.2,0,26.1,0v35.1c-2.1,0-4,0-5.9,0-29.2,0-58.3-.1-87.5,0-6.5,0-13,.4-19.4,1.5-13,2.4-20.2,11.8-19.9,25.2.3,12.8,7.8,20.9,21.4,22.7,5.3.7,10.6.8,15.9.8,30,0,60-.3,90-.4,1.1,0,2.3.1,3.9.2v31.5c-1.8,0-3.7,0-5.6,0-30.3,0-60.6,0-91,0-4.3,0-8.7.3-12.9.9-14.2,1.7-23.1,10.8-23,23.6,0,14.8,8.6,24.6,23.3,26.3,6.3.7,12.6.9,19,.9,28.7,0,57.3,0,86,0,1.8,0,3.6,0,5.9,0v35.3Z"/>
  <path class="cls-1" d="M1827.6,608.5v34.7c-1.6.1-3.1.3-4.5.3-31.3,0-62.7.7-94-.2-13.6-.4-27.5-3.1-40.7-6.9-18.5-5.4-30.2-22.9-31-42.2-.7-16.8,3.8-31.7,15.5-43.8,3.7-3.9,8.5-6.8,12.8-10.1-3.3-1.7-7-3.1-10.1-5.2-12-8.1-16.5-20.4-16.8-34-.2-8.7.9-17.7,3.1-26.1,5-18.8,19.4-27.6,37.3-31.1,10.6-2,21.4-3.1,32.2-3.4,20.5-.5,41-.2,61.5-.2,11.3,0,22.6,0,34.3,0v34.7c-1.9,0-3.8,0-5.7,0-29,0-58-.1-87,0-6.5,0-13,.3-19.4,1.4-13.5,2.4-21,12.4-20.3,25.9.6,12.6,8.3,20.5,22,22.1,5.3.6,10.6.7,16,.7,29.8,0,59.7-.3,89.5-.4,1.1,0,2.3.2,3.8.3v31.5c-1.9,0-3.9,0-5.8,0-30.7,0-61.3,0-92,.1-5.6,0-11.3.6-16.8,1.9-10.6,2.4-17.3,10.8-17.9,21.3-.6,12.1,4.8,22.2,15.3,25.4,6.6,2,13.7,2.9,20.6,3,30.5.3,61,.2,91.5.2,2,0,4,0,6.6,0Z"/>
  <path class="cls-1" d="M1069.8,552.2v-29.4c.4-.3.5-.5.6-.5,19,.3,38-.4,56.9,1.2,25.4,2.1,41.2,15.5,44.8,46.8,1.4,11.7.5,23.4-3,34.6-6.6,21.5-21.8,34.7-43.7,37.4-27,3.3-54.3,2.5-81-3.9-30.4-7.3-47.6-27.8-54.7-57.4-7.4-31.1-5.2-61.7,5.9-91.7,10.1-27.2,30.1-41.9,58.1-46.3,10-1.6,20.2-2.2,30.3-2.4,25.3-.4,50.6-.2,75.9-.3.5,0,.9.2,1.6.4v34.3c-2.2,0-4,0-5.7,0-25.3,0-50.6-.3-76-.1-6.5,0-12.9,1.2-19.3,2.2-21,3.3-32.3,16.7-36.8,36.4-4.3,19.1-4.2,38.3.2,57.4,4.7,20.8,17.6,33.3,38.9,36.1,18.4,2.4,36.8,3.5,55.3.7,12.1-1.9,20.1-9.9,21.5-21.5,2.6-22-6.6-33.2-28.8-34.3-8.8-.4-17.6.2-26.5.3-4.8,0-9.6,0-14.7,0Z"/>
  <path class="cls-1" d="M92.8,475.1v-34.7c8,0,15.7,0,23.4,0,27.8,0,55.6,0,83.5,0,6.6,0,13.4.3,19.9,1.4,27.3,4.6,43.8,21.8,48.3,49.8,4.5,27.6-8.3,54.6-31.3,66.3-3.5,1.8-7.3,3.1-11.2,4.7,15.7,26.9,31.2,53.4,47.2,80.8-13,0-25.1,0-37.2-.1-1.1,0-2.5-1.5-3.1-2.6-14-23.8-28-47.5-41.9-71.4-1.8-3.2-3.8-4.8-7.8-4.7-15.7.3-31.3.1-47,.1-6.2,0-7.6,1.3-7.6,7.6,0,21.6,0,43.3,0,64.9,0,1.9,0,3.9,0,5.9h-35.3c-.1-1.5-.3-2.8-.3-4.1,0-23.5-.3-46.9.1-70.4.1-7.1,1.9-14.1,3.4-21.1,2.1-9.5,8.6-14.3,17.9-15.6,4.3-.6,8.6-1,12.9-.9,19.8.1,39.6.5,59.5.6,7.2,0,14.3-.2,21.5-.8,10.8-.9,19.2-6,23.4-16.2,4.4-10.8,2.8-21.6-4.2-30.7-5.1-6.7-13.4-8-21.3-8.1-30.6-.4-61.3-.5-91.9-.7-6.8,0-13.6,0-20.9,0Z"/>
  <path class="cls-1" d="M1187.4,643.4c10.5-27,20.7-53.1,30.9-79.2,12.9-32.9,26-65.8,38.7-98.8,4.8-12.5,12.6-20.8,25.2-26.4,8.2-3.6,15.9-3.3,25.1-3.8-10.7-13.4-10.9-31.2-21.9-44.9-6.9,15.4-13.6,30.1-20.8,46.2-.6-2.3-1.5-3.8-1.1-4.7,7-17.5,14.3-34.9,22-53.7,1.4,3.3,2.2,5.3,3.1,7.3,6.6,15.8,13,31.7,19.8,47.4.9,2,3.4,4.2,5.5,4.6,14.1,2.6,23.5,10.5,28.7,23.6,6.1,15.5,11.9,31.1,17.9,46.6,16.6,43.5,33.1,87,49.7,130.4.6,1.5,1,3.1,1.6,5h-37.6c-8.4-20.7-16.9-40.7-24.6-61-11.6-30.8-22.7-61.8-34-92.6-1.2-3.3-2.7-6.5-4.2-9.6-2.2-4.4-5.3-7.5-10.8-7.4-5.7.1-8.6,3.5-10.5,8.3-7.3,18.6-14.6,37.1-21.9,55.7-12.3,31-24.8,62-37.1,93.1-1.4,3.5-2.4,7.3-4,10.8-.6,1.2-2.2,2.8-3.3,2.9-11.9.2-23.9.1-36.3.1Z"/>
  <path class="cls-1" d="M1708.4,395.2h6.6c26,0,52,0,78,0,8.6,0,9.8,1.2,9.7,9.8,0,8.7-.3,17.3-.5,26,0,1.5-.3,3.1-1,4.6-4-11.5-1.8-23.4-2.1-35.7h-94.2v-43c1.5,0,3.3,0,5,0,31.3,0,62.7,0,94,.1,4.4,0,5.7-1.1,5.6-5.6-.3-12.3-.1-24.6-.1-37.2-2.1-.1-3.7-.3-5.4-.3-47.3,0-94.7,0-142-.1-4.6,0-5.9,1.3-5.9,5.9,0,35-.2,69.9-.5,104.9,0,3.6-.6,7.1-.9,10.7-.6,0-1.2.1-1.8.2-.4-2.4-1.2-4.7-1.2-7.1,0-22.1.2-44.3.2-66.4,0-15,0-30,0-45,0-5.7,1.4-7.3,6.9-7.3,49,0,98,0,147,0,5.7,0,7.5,1.8,7.5,7.5,0,11.8,0,23.6,0,35.5,0,8.5-.3,8.8-8.6,8.8-30,0-60,0-90,0q-6.5,0-6.5,6.5c0,8.8,0,17.6,0,27.3Z"/>
  <path class="cls-1" d="M331.3,314.3c-.1,2.1-.3,4.1-.3,6-.3,32.5-.5,64.9-.8,97.4,0,1.9-.6,3.7-.9,5.5-.6,0-1.3-.1-1.9-.2-.2-1.5-.5-3-.5-4.6-.1-34.1-.2-68.3-.4-102.4,0-4.4,2.2-5.9,5.9-6.4,1.2-.1,2.3,0,3.5,0,47.5,0,95,0,142.5,0,8.7,0,10.1,1.3,10.1,10.1,0,11.7-.1,23.3,0,35,0,3.9-1.2,6-5.3,6.2-4.3.2-8.6.7-13,.7-27.2,0-54.3,0-81.5-.3-4.3,0-5.9,1-5.7,5.5.4,9.3.1,18.5.1,28.5,2.4,0,4.4,0,6.3,0,24.8,0,49.7,0,74.5,0,13.2,0,13.5.3,13.4,13.3,0,5.4,0,10.8,0,16.3-.8,0-1.6,0-2.3,0-.6-8.2-1.2-16.5-1.9-25.3h-93.9v-42.8h104.1v-42.6h-152.1Z"/>
  <path class="cls-1" d="M827.6,395.2c2.5,0,4.4,0,6.4,0,26,0,52,0,78,0,8.8,0,9.9,1.1,9.8,9.7,0,6.8-.3,13.7-.5,20.5,0,1.5-.4,2.9-.6,4.4-.6,0-1.2,0-1.8,0v-29.9h-95.1v-42.7h104.2v-42.8c-1.6,0-3.3-.2-5.1-.2-47.3,0-94.7,0-142-.1-4.4,0-5.6,1.1-5.7,5.5-.2,34-.6,67.9-.9,101.9,0,2-.3,4.1-.4,6.1-.5,0-1,0-1.5.1-.2-1.1-.6-2.2-.7-3.3-.3-36.1-.5-72.3-.8-108.4,0-4,2.1-5.7,5.7-6.1,1.3-.1,2.7,0,4,0,47.3,0,94.7,0,142,0,8.9,0,9.9.9,10,9.5.1,12,0,24,.1,36,0,3.7-1.2,5.6-5.1,5.8-4.2.2-8.3.7-12.5.7-27.3,0-54.7,0-82-.4-4.8,0-5.9,1.5-5.8,6,.3,9.1,0,18.2,0,28Z"/>
  <path class="cls-1" d="M484.6,767.3v-41.5h-107.3c-.2-1.9-.4-3.3-.4-4.7.1-10.8.5-21.6.4-32.5,0-4.4,1.1-6,5.9-5.9,27.7.3,55.3.2,83,.2,2.9,0,6.5,1.3,6.6-4.6,2.2,3.2,2.8,5.4-.7,6.2-3.7.9-7.5,1.7-11.3,1.7-25,.2-50,.2-75,0-4.5,0-5.6,1.3-5.5,5.7.4,9.6.1,19.2.1,29.5,3.2,0,5.2,0,7.1,0,31.2,0,62.3,0,93.5,0,7.4,0,8.4.9,8.5,8.3.1,12.2,0,24.3,0,36.5,0,3.5-1.4,5.3-4.7,5.8-2,.3-4,.6-5.9.6-49.7,0-99.3-.1-149-.1-4.1,0-5.5-1.8-5.5-5.8.2-28.6.3-57.3.4-85.9,0-1.5.3-3,1.2-4.6,3.3,5.6,1.8,11.6,2.2,17.4.4,6.1.2,12.3.2,18.5,0,6,0,12,.1,18,0,6.2.1,12.3.1,18.5,0,6.1,0,12.3,0,18.8h155.8Z"/>
  <path class="cls-1" d="M108.3,660.6v106.8c2.9.2,4.5.3,6.1.3,12.3,0,24.7-.2,37,.1,4.4,0,6-1,6-5.8-.3-18.5,0-37,0-55.4,0-1.8,0-3.6,0-6,10.4,0,20.4-.1,30.3.2,1.3,0,2.8,2.1,3.8,3.5,14,19.9,27.8,39.9,41.8,59.7,1.2,1.7,3.5,3.5,5.3,3.6,17.7.3,35.3.2,53,.1.7,0,1.5-.3,2.9-.6-17.5-25.2-34.8-49.9-51.7-74.2,9.1-6.1,17.8-11.9,26.6-17.7.3.4.6.8.9,1.2-7.2,6.1-14.3,12.1-21.9,18.5,6.2,8.7,12.6,17.8,19,26.8,9.7,13.6,19.4,27.1,29,40.6,4.3,6.1,3.1,9.7-4.2,9.8-18.7.4-37.3.2-56,0-1.4,0-3.2-1.6-4.1-2.9-14.1-20.4-28-40.9-42.1-61.3-1.2-1.8-4.1-3.2-6.4-3.4-5.8-.5-11.7,0-17.5-.2-3.9-.2-4.8,1.4-4.8,5,.2,17.1.2,34.3.2,51.4,0,10.8-.6,11.5-11.1,11.6-13.2.1-26.3-.2-39.5,0-3.6,0-5.2-1.4-5.5-4.8-.2-2.8-.8-5.6-.8-8.4,0-29.3.3-58.6.5-87.9,0-3.6.6-7.2.9-10.9.8,0,1.6,0,2.4.1Z"/>
  <path class="cls-1" d="M1013.5,430.6c-10.8-33.9,18.1-74.6,54.9-77,20.7-1.3,38.3,5.3,53.8,18.5,3.5,3,5,2.9,7.7-1.4,4.8-7.8,10.7-14.8,16-22.3,6-8.4,5.8-8.3-2-14.8-22-18.1-47.4-26-75.5-24.6-61.9,3.3-105.9,49.3-107,111.2,0,3.1,0,6.2,0,9.3-.6.1-1.1.2-1.7.3-.7-2.3-1.8-4.6-1.9-7-1.4-27.7,6.9-52.6,23.6-74.4,20.9-27.2,49-41.4,83.2-43.4,33.1-1.9,62.4,7.9,87.7,29.3,3.3,2.8,4.3,5.8,1.7,9.5-6.5,9.4-13.1,18.9-19.7,28.3-1.2,1.7-2.7,3.4-4.4,4.7-2.8,2.3-5.2,2.7-8.6-.2-24.2-20.2-53-24.6-77.7-10.3-19.5,11.3-27.7,29.2-28.5,51.1-.2,4.4,0,8.7,0,13.1-.5,0-1.1,0-1.6-.1Z"/>
  <path class="cls-1" d="M1201.2,691.7c-10.6,25.1-21.3,50.2-32.3,76.1,9.6,0,18.2,0,26.8,0,7,0,14,.2,21-.1,1.5,0,3.7-1.4,4.3-2.8,4.6-9.9,8.9-20,13.4-30.1.7-1.5,1.5-3,2-4.6,3.1-9.6,1.8-7.6,10.9-7.7,25.2-.1,50.3,0,75.5-.1,3.5,0,5.3,1,6.6,4.3,5.2,12.5,10.6,24.8,16.1,37.1.7,1.6,2.8,3.7,4.3,3.7,15.3.3,30.7.1,46,0,.5,0,.9-.3,1.3-.3-7.7-26.1-22.8-49.3-30.8-75.3.6-.3,1.3-.6,1.9-.9.8,1.3,1.7,2.5,2.3,3.9,10.3,23.1,20.6,46.2,30.8,69.3,2.2,5,1.2,7.1-4.5,7.7-6.1.7-12.3.6-18.5.6-9.5,0-19-.3-28.5-.2-3.3,0-5.3-1-6.6-4-5.5-12.6-11.3-25.1-16.6-37.9-1.2-2.9-2.4-4.1-5.6-4.1-24.8.1-49.7.1-74.5,0-3.5,0-4.9,1.3-6.2,4.3-5,12.1-10.4,24.2-15.4,36.3-1.5,3.7-3.7,5.3-7.9,5.3-15-.2-30,0-45,0-6.1,0-8.8-4.1-6.2-9.9,9.9-22.3,19.8-44.6,29.8-66.9.8-1.8,2.3-3.4,3.5-5.1.6.4,1.2.7,1.8,1.1Z"/>
  <path class="cls-1" d="M772.4,687.8v79.5h156.7v-42.4h-107v-36.2c.5,0,1.1-.1,1.6-.2.4,3,1.2,5.9,1.3,8.9.3,6.2.5,12.3.3,18.5-.2,4.4,1.3,5.6,5.7,5.6,31.2-.2,62.3-.1,93.5,0,8.6,0,9.4.8,9.5,9.3,0,11.3.1,22.6,0,34,0,6.2-1.1,7.2-7.2,7.7-4.3.3-8.7.3-13,.3-45.5,0-91-.2-136.5-.3-7.2,0-7.5,0-8-7.5-.4-7.1-.3-14.3-.3-21.4.1-16.6.4-33.3.6-49.9,0-1.9.3-3.8.4-5.7.8,0,1.5,0,2.3,0Z"/>
  <path class="cls-1" d="M1704.9,690.4c.2,1.5.7,3.1.7,4.6.3,7.2.7,14.3.6,21.5,0,4,1.3,5.1,5.2,5.1,24.3-.2,48.7,0,73,0,7.7,0,15.3,0,23,0,6.1,0,7.3,1.1,7.4,7.3.2,12.3,0,24.6.2,37,0,4.6-2.3,6.3-6.2,6.6-4.3.3-8.7.4-13,.4-46.2,0-92.3-.3-138.5-.2-4.8,0-6.7-1.7-6.8-6.1-.1-6.8-.5-13.6-.4-20.4.1-16.6.4-33.3.7-49.9,0-1.8.4-3.7.6-5.5.7,0,1.3,0,2,0v76.8h157.2c0-2.7,0-5.5,0-8.3,0-9.5-.2-19,.2-28.5.2-4.2-1.5-5.8-5.2-5.9-7.1-.3-14.3-.8-21.4-.7-25,.3-49.9.7-74.9,1.1-2,0-4-.2-5.9-.3v-34.2c.6,0,1.1-.1,1.7-.2Z"/>
  <path class="cls-1" d="M1420.3,435.8c-.2-1.6-.5-3.3-.5-4.9-.2-38.3-.3-76.6-.6-114.8,0-4.7,2.3-6.4,6.3-6.3,32.4.7,64.9.6,97.3,2.5,19.7,1.1,38.6,6.9,55.2,18.4,26.1,18.1,38.7,43.8,41.1,74.7.8,10,.1,20.1.1,30.2l-2.5.2c-.4-2.4-1.3-4.9-1.1-7.2,1.3-14.4-.2-28.5-3.7-42.5-7.8-31-27.4-51.3-57.2-62.2-15.3-5.6-31.2-8.5-47.4-8.9-26.5-.6-53-.6-79.4-1.1-4.5,0-4.7,2.2-4.7,5.5,0,31.6-.2,63.2-.4,94.9,0,5.8-.4,11.6-.6,17.5,0,1.4-.4,2.7-.6,4.1-.5,0-1,0-1.4,0Z"/>
  <path class="cls-1" d="M277.3,422c0-.6,0-1.2.1-1.8,9.8-24.4,7.4-48.5-1.7-72.4-4.8-12.7-15-20-27.1-24.9-14.7-6-30.2-8.5-45.8-8.8-29.1-.6-58.3,0-87.4-.2-4.1,0-4,2.1-4,5,0,28.6,0,57.3-.2,85.9,0,8.2-.4,16.3-.9,24.4-.1,2.2-.9,4.4-2.6,6.5-.2-5-.7-10.1-.7-15.1-.1-34.5-.2-68.9-.3-103.4,0-5.6,1.5-7.5,6.8-7.5,31.2,0,62.3-.3,93.5.7,12.3.4,24.9,3,36.7,6.7,25.5,8,39.4,26.6,43,52.9,2.2,16.3.7,32.2-5.3,47.5-.7,1.8-2,3.4-3,5-.4-.2-.7-.4-1.1-.5Z"/>
  <path class="cls-1" d="M1420.4,691.4v76.4c12,0,22.7.2,33.3,0,23.6-.6,47.4,0,70.8-2.6,35.6-3.8,63-21.3,79.5-53.9,2.9-5.7,4.6-12,6.9-18.1.3-.9.9-1.7,1.4-2.5.6.2,1.1.4,1.7.6-1.5,5.8-2.4,11.8-4.6,17.2-13.1,32.8-37.2,52.7-71.9,58.6-17.6,3-35.7,4.3-53.6,5-20,.8-40,0-60,.3-4.4,0-6.1-1.8-6.3-5.6-.2-7.3-.3-14.6-.3-22,0-16.1.3-32.3.5-48.4,0-1.7.3-3.4.4-5,.7,0,1.5,0,2.2,0Z"/>
  <path class="cls-1" d="M1207.9,433.7c0-1-.1-2.1.3-3,15.1-35.8,30.2-71.6,45.3-107.3q5.8-13.7,20.8-13.7c10.3,0,20.7.2,31,0,4.4,0,7,1.8,8.7,5.9,16.2,38.3,32.6,76.5,48.9,114.8.6,1.5.8,3.2,1.3,4.8-.5.2-1,.3-1.5.5-1.1-2.4-2.3-4.8-3.4-7.2-14.9-33.9-29.9-67.7-44.6-101.8-5.4-12.5-4.9-12.7-18.7-12.7-9.3,0-18.7.2-28-.1-3.9-.1-5.8,1.1-7.4,4.8-15.1,34.9-30.4,69.8-45.6,104.7-1.6,3.7-3.5,7.3-5.3,10.9-.6-.2-1.2-.4-1.8-.5Z"/>
  <path class="cls-1" d="M525.3,424.8c-.4-4-1.2-8-1.2-12,0-31.8,0-63.6,0-95.4,0-6.3,1.3-7.7,7.5-7.7,12.8,0,25.7-.1,38.5.3,2.6,0,6.1,1.5,7.6,3.5,27.9,36.5,55.5,73.2,83.2,109.9.8,1,1.5,2.2,1.5,4.2-1.2-.9-2.7-1.6-3.6-2.7-26.4-34.3-52.8-68.5-78.9-103-4.2-5.6-8.2-8.5-15.5-8-10.1.7-20.3.4-30.5,0-4.3-.1-5.7,1.1-5.7,5.5,0,31,0,61.9-.2,92.9,0,4.1-.5,8.2-.8,12.3-.7,0-1.4.1-2.1.2Z"/>
  <path class="cls-1" d="M1160.7,690.8c.2,1.4.4,2.8.5,4.3.2,12.5.4,25,.3,37.5,0,2.5-1.3,5.5-3,7.4-28.5,30.6-64.9,38.3-104.5,34.2-43.2-4.5-80.7-36.5-92.4-77-.7-2.3-1.1-4.6-1.7-7,.5-.2.9-.4,1.4-.5.8,1.8,1.8,3.5,2.4,5.4,13.9,38.9,40.5,64.6,81.2,72.7,39.1,7.8,75.5.2,106.8-26.2,3.9-3.3,6-6.9,5.9-12.4-.3-10.5,0-21,.3-31.5,0-2.3.8-4.7,1.3-7,.5,0,1.1.1,1.6.2Z"/>
  <path class="cls-1" d="M673.2,426.8c-.1-1.6-.4-3.1-.4-4.7-.1-9-.3-18-.4-27-.3-23.3-.6-46.5-.9-69.8,0-2.8.6-5.6.6-8.4-.1-5.5,2.8-7.2,7.8-7.2,13.8,0,27.6,0,41.5,0,4.2,0,7.1,1.6,7,6.4-.2,34.4-.3,68.9-.5,103.3,0,2.6-.4,5.2-.7,7.8-.5,0-1.1,0-1.6.1-.3-3.1-.8-6.1-.9-9.2-.4-31.8-.8-63.6-1.1-95.3,0-2.8,0-5.6,0-9-4.5,0-8.4,0-12.4,0-10,0-20,.2-30,0-3.9-.1-5.4,1.3-5.4,5,0,6.8-.2,13.6-.2,20.4-.1,27.3-.2,54.6-.3,81.9,0,1.9-.3,3.8-.4,5.6-.6,0-1.2,0-1.8,0Z"/>
  <path class="cls-1" d="M722.5,767.7v-79.8c.8,0,1.6-.1,2.4-.2.4,3,1,6.1,1,9.1.2,9.8.3,19.6.3,29.4,0,13.1,0,26.3.1,39.4,0,3.6-1.3,5.7-4.9,6.1-1.7.2-3.3.6-4.9.6-13.5,0-27,0-40.5-.1-1.8,0-4.3-1.1-5.4-2.5-15.6-19.9-31-39.9-46.3-60.1-4.8-6.3-9.3-13-13.9-19.5-1-1.4-1.7-3-2.5-4.6.4-.3.7-.6,1.1-.9,1.2,1.1,2.5,2.2,3.4,3.5,19.3,25.1,38.5,50.1,57.7,75.2,2.3,3,4.7,4.5,8.7,4.4,14-.3,27.9-.1,43.5-.1Z"/>
  <path class="cls-1" d="M1471.9,434.7c-.5-26.1-.3-52.2-.4-78.7,21.8-.4,43.1-.9,63.4,7.2,19.5,7.8,28.8,23.4,31.3,43.4,1.1,8.5,0,17.2,0,25.8,0,1.2-.9,2.5-1.4,3.7-.5,0-1-.1-1.5-.2-.1-1.7-.3-3.3-.4-5-.7-9.6-.3-19.4-2.2-28.7-4.6-22.6-18.5-35.8-41.5-39.2-12.9-1.9-26.2-1.8-39.3-2.7-3.8-.3-4.3,1.7-4.3,4.9,0,20.8-.3,41.6-.5,62.4,0,2.4-.4,4.8-.7,7.2-.8,0-1.7,0-2.5,0Z"/>
  <path class="cls-1" d="M525.2,681.4c2.2,28.5.6,57.1,1.4,86h48.3v-83.7c.6,0,1.2-.2,1.8-.2.4,1.7,1.2,3.4,1.2,5.1.3,25.8.4,51.6.6,77.4,0,4.6-2.5,6.6-6.9,6.6-14.8,0-29.6-.1-44.5,0-3.1,0-4.2-1.8-4.5-4.2-.5-3.6-.9-7.3-.9-10.9.2-23.6.6-47.3.9-70.9,0-1.7.3-3.4.5-5.1.7,0,1.3,0,2,0Z"/>
  <path class="cls-1" d="M159.8,354.9c17,.6,33.8.3,50.5,2,17.2,1.8,24.2,10.7,24.1,27.2,0,16.8-9.4,29.3-24.9,31.2-11.7,1.4-23.6,1-35.4,1.3-4.6.1-9.3,0-14.4,0v-61.7ZM162.7,360.4c0,17,0,33.7.1,50.4,0,.8,1.5,2.2,2.4,2.3,16.3.9,32.7,1.9,48.6-2.3,10.1-2.7,16.6-9.7,17.2-20.3.4-5.8-1.2-11.8-2.8-17.5-.8-2.8-3.4-5.6-6-7.3-6.5-4.6-14.4-5-22-5.2-12.1-.2-24.2,0-37.6,0Z"/>
  <path class="cls-1" d="M1109,690.9c0,8.3,0,16.5,0,24.8,0,1-1.2,2.5-2.1,2.8-13.1,4.3-25.9,9.9-40.1,8.9-21.1-1.5-37.2-11.3-48-29.5-1.3-2.2-1.9-4.8-2-7.7.7.6,1.6,1,2,1.7,18.5,31.4,45,35,74.8,27.5,11.1-2.8,11.2-3.3,11.8-14.5.2-3.3,0-6.7.2-10,0-1.5.6-2.9,1-4.3.8,0,1.7.2,2.5.3Z"/>
  <path class="cls-1" d="M1559.1,690.1c-7.9,23.4-25.1,31.7-46.5,33.3-14.1,1.1-28.2,1.2-42.2,1.8v-34.6c.5,0,1.1,0,1.6-.1.3,2.5.9,5,1,7.5.2,6.5.1,13,.5,19.5,0,1.4,1.6,3.8,2.5,3.8,17.1.1,34.3,1.1,51-4.1,10.3-3.2,17.9-9.8,24.4-18.1,2.1-2.7,4.5-5.2,7.7-8.9Z"/>
  <path class="cls-1" d="M1108.7,433.8c-2.1-5.2-2.8-10.7-1.1-16.1.5-1.6,3.2-3.6,5-3.6,14.6-.3,29.3-.3,43.9-.3,4.7,0,7,2.3,6.8,7.2-.1,3.9,0,7.8,0,11.7-.8,0-1.6.1-2.4.2-.6-4.8-1.3-9.5-2-14.8h-47.7c-.4,5.2-.8,10.5-1.2,15.8-.5,0-.9,0-1.4,0Z"/>
  <path class="cls-1" d="M598.6,428.5c-5.8-6.8-11.7-13.6-18-20.9-.4,6.7-.8,13.1-1.3,19.4-.7,0-1.4,0-2.1-.1v-30.9c7.8,10.7,15.4,20.9,22.9,31.2-.5.4-1.1.9-1.6,1.3Z"/>
</svg>